STARTFONT 2.1
FONT d12lucid
SIZE 14 78 78
FONTBOUNDINGBOX 14 15 0 -3
STARTPROPERTIES 4
Copyright "Copyright (c) 1988 AT&T, Inc"
FONT_ASCENT 12
FONT_DESCENT 3
DEFAULT_CHAR 32
ENDPROPERTIES
CHARS 97
STARTCHAR C001
ENCODING 1
SWIDTH 140 0
DWIDTH 10 0
BBX 10 15 0 -3
BITMAP
0000
0000
0000
0000
0000
0000
0000
0000
0000
0000
0000
0000
0000
0000
0000
ENDCHAR
STARTCHAR C002
ENCODING 2
SWIDTH 168 0
DWIDTH 12 0
BBX 12 15 0 -3
BITMAP
0000
0000
0000
0000
0660
0cc0
1980
3320
6660
4cc0
1980
3300
6600
c000
0000
ENDCHAR
STARTCHAR C040
ENCODING 32
SWIDTH 84 0
DWIDTH 6 0
BBX 6 15 0 -3
BITMAP
00
00
00
00
00
00
00
00
00
00
00
00
00
00
00
ENDCHAR
STARTCHAR !
ENCODING 33
SWIDTH 70 0
DWIDTH 5 0
BBX 5 15 0 -3
BITMAP
00
00
00
30
30
30
30
30
30
10
00
30
30
00
00
ENDCHAR
STARTCHAR "
ENCODING 34
SWIDTH 112 0
DWIDTH 8 0
BBX 8 15 0 -3
BITMAP
00
00
36
36
12
24
00
00
00
00
00
00
00
00
00
ENDCHAR
STARTCHAR #
ENCODING 35
SWIDTH 140 0
DWIDTH 10 0
BBX 10 15 0 -3
BITMAP
0000
0000
0000
1200
1200
1200
7f80
1200
1200
7f80
1200
1200
1200
0000
0000
ENDCHAR
STARTCHAR $
ENCODING 36
SWIDTH 126 0
DWIDTH 9 0
BBX 9 15 0 -3
BITMAP
0000
0000
0400
3e00
6500
6400
7400
3c00
1e00
1700
1300
5300
3e00
1000
0000
ENDCHAR
STARTCHAR %
ENCODING 37
SWIDTH 154 0
DWIDTH 11 0
BBX 11 15 0 -3
BITMAP
0000
0000
0000
7000
d880
d900
7200
0400
0800
1380
26c0
46c0
0380
0000
0000
ENDCHAR
STARTCHAR &
ENCODING 38
SWIDTH 154 0
DWIDTH 11 0
BBX 11 15 0 -3
BITMAP
0000
0000
0000
1e00
3300
3300
3200
1cc0
2cc0
6680
6300
7380
3cc0
0000
0000
ENDCHAR
STARTCHAR '
ENCODING 39
SWIDTH 70 0
DWIDTH 5 0
BBX 5 15 0 -3
BITMAP
00
00
30
30
10
20
00
00
00
00
00
00
00
00
00
ENDCHAR
STARTCHAR (
ENCODING 40
SWIDTH 84 0
DWIDTH 6 0
BBX 6 15 0 -3
BITMAP
00
00
18
30
30
60
60
60
60
60
60
30
30
18
00
ENDCHAR
STARTCHAR )
ENCODING 41
SWIDTH 84 0
DWIDTH 6 0
BBX 6 15 0 -3
BITMAP
00
00
60
30
30
18
18
18
18
18
18
30
30
60
00
ENDCHAR
STARTCHAR *
ENCODING 42
SWIDTH 98 0
DWIDTH 7 0
BBX 7 15 0 -3
BITMAP
00
00
00
10
54
38
54
10
00
00
00
00
00
00
00
ENDCHAR
STARTCHAR +
ENCODING 43
SWIDTH 126 0
DWIDTH 9 0
BBX 9 15 0 -3
BITMAP
0000
0000
0000
0000
0000
0800
0800
0800
7f00
0800
0800
0800
0000
0000
0000
ENDCHAR
STARTCHAR ,
ENCODING 44
SWIDTH 70 0
DWIDTH 5 0
BBX 5 15 0 -3
BITMAP
00
00
00
00
00
00
00
00
00
00
00
30
30
10
20
ENDCHAR
STARTCHAR -
ENCODING 45
SWIDTH 126 0
DWIDTH 9 0
BBX 9 15 0 -3
BITMAP
0000
0000
0000
0000
0000
0000
0000
0000
7f00
0000
0000
0000
0000
0000
0000
ENDCHAR
STARTCHAR .
ENCODING 46
SWIDTH 70 0
DWIDTH 5 0
BBX 5 15 0 -3
BITMAP
00
00
00
00
00
00
00
00
00
00
00
30
30
00
00
ENDCHAR
STARTCHAR /
ENCODING 47
SWIDTH 112 0
DWIDTH 8 0
BBX 8 15 0 -3
BITMAP
00
00
00
06
06
0c
0c
18
18
30
30
60
60
00
00
ENDCHAR
STARTCHAR 0
ENCODING 48
SWIDTH 126 0
DWIDTH 9 0
BBX 9 15 0 -3
BITMAP
0000
0000
0000
1c00
3600
6300
6300
6300
6300
6300
6300
3600
1c00
0000
0000
ENDCHAR
STARTCHAR 1
ENCODING 49
SWIDTH 126 0
DWIDTH 9 0
BBX 9 15 0 -3
BITMAP
0000
0000
0000
0c00
1c00
2c00
0c00
0c00
0c00
0c00
0c00
0c00
0c00
0000
0000
ENDCHAR
STARTCHAR 2
ENCODING 50
SWIDTH 126 0
DWIDTH 9 0
BBX 9 15 0 -3
BITMAP
0000
0000
0000
3e00
6700
0300
0300
0600
0c00
1800
3000
7f00
7f00
0000
0000
ENDCHAR
STARTCHAR 3
ENCODING 51
SWIDTH 126 0
DWIDTH 9 0
BBX 9 15 0 -3
BITMAP
0000
0000
0000
3e00
6700
0300
0600
1c00
0600
0300
0300
6700
3e00
0000
0000
ENDCHAR
STARTCHAR 4
ENCODING 52
SWIDTH 126 0
DWIDTH 9 0
BBX 9 15 0 -3
BITMAP
0000
0000
0000
0600
0e00
1600
2600
4600
7f00
7f00
0600
0600
0600
0000
0000
ENDCHAR
STARTCHAR 5
ENCODING 53
SWIDTH 126 0
DWIDTH 9 0
BBX 9 15 0 -3
BITMAP
0000
0000
0000
7e00
7e00
4000
4000
7e00
0700
0300
0300
6600
3c00
0000
0000
ENDCHAR
STARTCHAR 6
ENCODING 54
SWIDTH 126 0
DWIDTH 9 0
BBX 9 15 0 -3
BITMAP
0000
0000
0000
1e00
3300
6000
6c00
7600
6300
6300
6300
3600
1c00
0000
0000
ENDCHAR
STARTCHAR 7
ENCODING 55
SWIDTH 126 0
DWIDTH 9 0
BBX 9 15 0 -3
BITMAP
0000
0000
0000
7f00
7f00
0300
0600
0c00
1800
1800
3000
3000
3000
0000
0000
ENDCHAR
STARTCHAR 8
ENCODING 56
SWIDTH 126 0
DWIDTH 9 0
BBX 9 15 0 -3
BITMAP
0000
0000
0000
3e00
6300
6300
7200
3c00
3e00
6700
6300
6300
3e00
0000
0000
ENDCHAR
STARTCHAR 9
ENCODING 57
SWIDTH 126 0
DWIDTH 9 0
BBX 9 15 0 -3
BITMAP
0000
0000
0000
1c00
3600
6300
6300
6300
3700
1b00
0300
6600
3c00
0000
0000
ENDCHAR
STARTCHAR :
ENCODING 58
SWIDTH 70 0
DWIDTH 5 0
BBX 5 15 0 -3
BITMAP
00
00
00
00
00
00
30
30
00
00
00
30
30
00
00
ENDCHAR
STARTCHAR ;
ENCODING 59
SWIDTH 70 0
DWIDTH 5 0
BBX 5 15 0 -3
BITMAP
00
00
00
00
00
00
30
30
00
00
00
30
30
10
20
ENDCHAR
STARTCHAR <
ENCODING 60
SWIDTH 112 0
DWIDTH 8 0
BBX 8 15 0 -3
BITMAP
00
00
00
00
00
06
0c
18
30
18
0c
06
00
00
00
ENDCHAR
STARTCHAR =
ENCODING 61
SWIDTH 126 0
DWIDTH 9 0
BBX 9 15 0 -3
BITMAP
0000
0000
0000
0000
0000
0000
0000
7f00
0000
7f00
0000
0000
0000
0000
0000
ENDCHAR
STARTCHAR >
ENCODING 62
SWIDTH 112 0
DWIDTH 8 0
BBX 8 15 0 -3
BITMAP
00
00
00
00
00
30
18
0c
06
0c
18
30
00
00
00
ENDCHAR
STARTCHAR ?
ENCODING 63
SWIDTH 112 0
DWIDTH 8 0
BBX 8 15 0 -3
BITMAP
00
00
00
3c
66
06
06
0c
18
18
00
18
18
00
00
ENDCHAR
STARTCHAR @
ENCODING 64
SWIDTH 168 0
DWIDTH 12 0
BBX 12 15 0 -3
BITMAP
0000
0000
0000
0f00
3080
20c0
47c0
4cc0
4cc0
4cc0
2760
3000
0f80
0000
0000
ENDCHAR
STARTCHAR A
ENCODING 65
SWIDTH 140 0
DWIDTH 10 0
BBX 10 15 0 -3
BITMAP
0000
0000
0000
0c00
0c00
1600
1600
3300
2300
7f00
6180
6180
6180
0000
0000
ENDCHAR
STARTCHAR B
ENCODING 66
SWIDTH 126 0
DWIDTH 9 0
BBX 9 15 0 -3
BITMAP
0000
0000
0000
3e00
3300
3300
3200
3c00
3200
3300
3300
3300
3e00
0000
0000
ENDCHAR
STARTCHAR C
ENCODING 67
SWIDTH 140 0
DWIDTH 10 0
BBX 10 15 0 -3
BITMAP
0000
0000
0000
1f00
3180
6000
6000
6000
6000
6000
6000
3180
1f00
0000
0000
ENDCHAR
STARTCHAR D
ENCODING 68
SWIDTH 154 0
DWIDTH 11 0
BBX 11 15 0 -3
BITMAP
0000
0000
0000
3f00
3180
30c0
30c0
30c0
30c0
30c0
30c0
3180
3f00
0000
0000
ENDCHAR
STARTCHAR E
ENCODING 69
SWIDTH 126 0
DWIDTH 9 0
BBX 9 15 0 -3
BITMAP
0000
0000
0000
3f00
3000
3000
3000
3e00
3000
3000
3000
3000
3f00
0000
0000
ENDCHAR
STARTCHAR F
ENCODING 70
SWIDTH 126 0
DWIDTH 9 0
BBX 9 15 0 -3
BITMAP
0000
0000
0000
3f00
3000
3000
3000
3e00
3000
3000
3000
3000
3000
0000
0000
ENDCHAR
STARTCHAR G
ENCODING 71
SWIDTH 140 0
DWIDTH 10 0
BBX 10 15 0 -3
BITMAP
0000
0000
0000
1f00
3180
6000
6000
6000
6180
6180
6180
3180
1f80
0000
0000
ENDCHAR
STARTCHAR H
ENCODING 72
SWIDTH 140 0
DWIDTH 10 0
BBX 10 15 0 -3
BITMAP
0000
0000
0000
3180
3180
3180
3180
3f80
3180
3180
3180
3180
3180
0000
0000
ENDCHAR
STARTCHAR I
ENCODING 73
SWIDTH 70 0
DWIDTH 5 0
BBX 5 15 0 -3
BITMAP
00
00
00
30
30
30
30
30
30
30
30
30
30
00
00
ENDCHAR
STARTCHAR J
ENCODING 74
SWIDTH 70 0
DWIDTH 5 0
BBX 5 15 0 -3
BITMAP
00
00
00
30
30
30
30
30
30
30
30
30
30
30
e0
ENDCHAR
STARTCHAR K
ENCODING 75
SWIDTH 140 0
DWIDTH 10 0
BBX 10 15 0 -3
BITMAP
0000
0000
0000
3180
3300
3200
3400
3c00
3600
3300
3300
3180
3180
0000
0000
ENDCHAR
STARTCHAR L
ENCODING 76
SWIDTH 112 0
DWIDTH 8 0
BBX 8 15 0 -3
BITMAP
00
00
00
30
30
30
30
30
30
30
30
30
3e
00
00
ENDCHAR
STARTCHAR M
ENCODING 77
SWIDTH 196 0
DWIDTH 14 0
BBX 14 15 0 -3
BITMAP
0000
0000
0000
3838
3838
2c58
2c58
2c58
2698
2698
2318
2318
2018
0000
0000
ENDCHAR
STARTCHAR N
ENCODING 78
SWIDTH 140 0
DWIDTH 10 0
BBX 10 15 0 -3
BITMAP
0000
0000
0000
3080
3880
3880
2c80
2c80
2680
2680
2380
2380
2180
0000
0000
ENDCHAR
STARTCHAR O
ENCODING 79
SWIDTH 154 0
DWIDTH 11 0
BBX 11 15 0 -3
BITMAP
0000
0000
0000
1f00
3180
60c0
60c0
60c0
60c0
60c0
60c0
3180
1f00
0000
0000
ENDCHAR
STARTCHAR P
ENCODING 80
SWIDTH 126 0
DWIDTH 9 0
BBX 9 15 0 -3
BITMAP
0000
0000
0000
3e00
3300
3300
3300
3300
3e00
3000
3000
3000
3000
0000
0000
ENDCHAR
STARTCHAR Q
ENCODING 81
SWIDTH 154 0
DWIDTH 11 0
BBX 11 15 0 -3
BITMAP
0000
0000
0000
1f00
3180
60c0
60c0
60c0
60c0
60c0
60c0
3180
1f00
0180
00c0
ENDCHAR
STARTCHAR R
ENCODING 82
SWIDTH 140 0
DWIDTH 10 0
BBX 10 15 0 -3
BITMAP
0000
0000
0000
3e00
3300
3300
3200
3c00
3600
3300
3300
3180
3180
0000
0000
ENDCHAR
STARTCHAR S
ENCODING 83
SWIDTH 112 0
DWIDTH 8 0
BBX 8 15 0 -3
BITMAP
00
00
00
3c
66
60
70
38
1c
0e
06
66
3c
00
00
ENDCHAR
STARTCHAR T
ENCODING 84
SWIDTH 126 0
DWIDTH 9 0
BBX 9 15 0 -3
BITMAP
0000
0000
0000
ff00
1800
1800
1800
1800
1800
1800
1800
1800
1800
0000
0000
ENDCHAR
STARTCHAR U
ENCODING 85
SWIDTH 140 0
DWIDTH 10 0
BBX 10 15 0 -3
BITMAP
0000
0000
0000
3180
3180
3180
3180
3180
3180
3180
3180
1b00
0e00
0000
0000
ENDCHAR
STARTCHAR V
ENCODING 86
SWIDTH 140 0
DWIDTH 10 0
BBX 10 15 0 -3
BITMAP
0000
0000
0000
6180
6180
6180
3100
3100
3300
1a00
1a00
0c00
0c00
0000
0000
ENDCHAR
STARTCHAR W
ENCODING 87
SWIDTH 182 0
DWIDTH 13 0
BBX 13 15 0 -3
BITMAP
0000
0000
0000
6030
6030
6330
6330
3320
35a0
35a0
35a0
18c0
18c0
0000
0000
ENDCHAR
STARTCHAR X
ENCODING 88
SWIDTH 126 0
DWIDTH 9 0
BBX 9 15 0 -3
BITMAP
0000
0000
0000
6300
6300
3200
3400
1c00
1c00
3600
2600
6300
6300
0000
0000
ENDCHAR
STARTCHAR Y
ENCODING 89
SWIDTH 140 0
DWIDTH 10 0
BBX 10 15 0 -3
BITMAP
0000
0000
0000
6180
6180
3100
3300
1a00
0c00
0c00
0c00
0c00
0c00
0000
0000
ENDCHAR
STARTCHAR Z
ENCODING 90
SWIDTH 126 0
DWIDTH 9 0
BBX 9 15 0 -3
BITMAP
0000
0000
0000
7f00
0300
0300
0600
0c00
1800
3000
6000
6000
7f00
0000
0000
ENDCHAR
STARTCHAR [
ENCODING 91
SWIDTH 84 0
DWIDTH 6 0
BBX 6 15 0 -3
BITMAP
00
00
78
60
60
60
60
60
60
60
60
60
60
78
00
ENDCHAR
STARTCHAR \
ENCODING 92
SWIDTH 112 0
DWIDTH 8 0
BBX 8 15 0 -3
BITMAP
00
00
00
60
60
30
30
18
18
0c
0c
06
06
00
00
ENDCHAR
STARTCHAR ]
ENCODING 93
SWIDTH 84 0
DWIDTH 6 0
BBX 6 15 0 -3
BITMAP
00
00
78
18
18
18
18
18
18
18
18
18
18
78
00
ENDCHAR
STARTCHAR ^
ENCODING 94
SWIDTH 126 0
DWIDTH 9 0
BBX 9 15 0 -3
BITMAP
0000
0000
0000
0800
1c00
1400
3600
2200
6300
4100
0000
0000
0000
0000
0000
ENDCHAR
STARTCHAR _
ENCODING 95
SWIDTH 126 0
DWIDTH 9 0
BBX 9 15 0 -3
BITMAP
0000
0000
0000
0000
0000
0000
0000
0000
0000
0000
0000
0000
0000
7f00
0000
ENDCHAR
STARTCHAR `
ENCODING 96
SWIDTH 70 0
DWIDTH 5 0
BBX 5 15 0 -3
BITMAP
00
00
10
20
30
30
00
00
00
00
00
00
00
00
00
ENDCHAR
STARTCHAR a
ENCODING 97
SWIDTH 126 0
DWIDTH 9 0
BBX 9 15 0 -3
BITMAP
0000
0000
0000
0000
0000
3c00
0600
0600
3e00
6600
6600
6600
3b00
0000
0000
ENDCHAR
STARTCHAR b
ENCODING 98
SWIDTH 126 0
DWIDTH 9 0
BBX 9 15 0 -3
BITMAP
0000
0000
6000
6000
6000
6c00
7600
6300
6300
6300
6300
6600
7c00
0000
0000
ENDCHAR
STARTCHAR c
ENCODING 99
SWIDTH 112 0
DWIDTH 8 0
BBX 8 15 0 -3
BITMAP
00
00
00
00
00
1c
32
60
60
60
60
32
1c
00
00
ENDCHAR
STARTCHAR d
ENCODING 100
SWIDTH 126 0
DWIDTH 9 0
BBX 9 15 0 -3
BITMAP
0000
0000
0300
0300
0300
1f00
3300
6300
6300
6300
6300
3700
1b00
0000
0000
ENDCHAR
STARTCHAR e
ENCODING 101
SWIDTH 126 0
DWIDTH 9 0
BBX 9 15 0 -3
BITMAP
0000
0000
0000
0000
0000
1e00
3300
6300
7f00
6000
6000
3100
1e00
0000
0000
ENDCHAR
STARTCHAR f
ENCODING 102
SWIDTH 84 0
DWIDTH 6 0
BBX 6 15 0 -3
BITMAP
00
00
38
60
60
f8
60
60
60
60
60
60
60
00
00
ENDCHAR
STARTCHAR g
ENCODING 103
SWIDTH 126 0
DWIDTH 9 0
BBX 9 15 0 -3
BITMAP
0000
0000
0000
0000
0000
1f00
3300
6300
6300
6300
3700
1b00
0300
6600
3c00
ENDCHAR
STARTCHAR h
ENCODING 104
SWIDTH 126 0
DWIDTH 9 0
BBX 9 15 0 -3
BITMAP
0000
0000
6000
6000
6000
6e00
7700
6300
6300
6300
6300
6300
6300
0000
0000
ENDCHAR
STARTCHAR i
ENCODING 105
SWIDTH 56 0
DWIDTH 4 0
BBX 4 15 0 -3
BITMAP
00
00
60
60
00
60
60
60
60
60
60
60
60
00
00
ENDCHAR
STARTCHAR j
ENCODING 106
SWIDTH 70 0
DWIDTH 5 0
BBX 5 15 0 -3
BITMAP
00
00
30
30
00
30
30
30
30
30
30
30
30
30
e0
ENDCHAR
STARTCHAR k
ENCODING 107
SWIDTH 126 0
DWIDTH 9 0
BBX 9 15 0 -3
BITMAP
0000
0000
6000
6000
6000
6600
6400
6800
7800
6c00
6c00
6600
6700
0000
0000
ENDCHAR
STARTCHAR l
ENCODING 108
SWIDTH 56 0
DWIDTH 4 0
BBX 4 15 0 -3
BITMAP
00
00
60
60
60
60
60
60
60
60
60
60
60
00
00
ENDCHAR
STARTCHAR m
ENCODING 109
SWIDTH 196 0
DWIDTH 14 0
BBX 14 15 0 -3
BITMAP
0000
0000
0000
0000
0000
6ef0
77b8
6318
6318
6318
6318
6318
6318
0000
0000
ENDCHAR
STARTCHAR n
ENCODING 110
SWIDTH 126 0
DWIDTH 9 0
BBX 9 15 0 -3
BITMAP
0000
0000
0000
0000
0000
6e00
7700
6300
6300
6300
6300
6300
6300
0000
0000
ENDCHAR
STARTCHAR o
ENCODING 111
SWIDTH 140 0
DWIDTH 10 0
BBX 10 15 0 -3
BITMAP
0000
0000
0000
0000
0000
1e00
3300
6180
6180
6180
6180
3300
1e00
0000
0000
ENDCHAR
STARTCHAR p
ENCODING 112
SWIDTH 126 0
DWIDTH 9 0
BBX 9 15 0 -3
BITMAP
0000
0000
0000
0000
0000
6c00
7600
6300
6300
6300
6300
6600
7c00
6000
6000
ENDCHAR
STARTCHAR q
ENCODING 113
SWIDTH 126 0
DWIDTH 9 0
BBX 9 15 0 -3
BITMAP
0000
0000
0000
0000
0000
1f00
3300
6300
6300
6300
6300
3700
1b00
0300
0300
ENDCHAR
STARTCHAR r
ENCODING 114
SWIDTH 98 0
DWIDTH 7 0
BBX 7 15 0 -3
BITMAP
00
00
00
00
00
6c
6c
70
60
60
60
60
60
00
00
ENDCHAR
STARTCHAR s
ENCODING 115
SWIDTH 98 0
DWIDTH 7 0
BBX 7 15 0 -3
BITMAP
00
00
00
00
00
3c
60
60
78
3c
0c
0c
78
00
00
ENDCHAR
STARTCHAR t
ENCODING 116
SWIDTH 84 0
DWIDTH 6 0
BBX 6 15 0 -3
BITMAP
00
00
00
60
60
f8
60
60
60
60
60
60
38
00
00
ENDCHAR
STARTCHAR u
ENCODING 117
SWIDTH 126 0
DWIDTH 9 0
BBX 9 15 0 -3
BITMAP
0000
0000
0000
0000
0000
6300
6300
6300
6300
6300
6300
7700
3b00
0000
0000
ENDCHAR
STARTCHAR v
ENCODING 118
SWIDTH 126 0
DWIDTH 9 0
BBX 9 15 0 -3
BITMAP
0000
0000
0000
0000
0000
6300
6300
6300
6200
3600
3400
1800
1800
0000
0000
ENDCHAR
STARTCHAR w
ENCODING 119
SWIDTH 168 0
DWIDTH 12 0
BBX 12 15 0 -3
BITMAP
0000
0000
0000
0000
0000
6060
6660
6660
6660
6b40
31c0
3180
3180
0000
0000
ENDCHAR
STARTCHAR x
ENCODING 120
SWIDTH 112 0
DWIDTH 8 0
BBX 8 15 0 -3
BITMAP
00
00
00
00
00
66
66
34
18
18
2c
66
66
00
00
ENDCHAR
STARTCHAR y
ENCODING 121
SWIDTH 126 0
DWIDTH 9 0
BBX 9 15 0 -3
BITMAP
0000
0000
0000
0000
0000
6300
6300
6300
6200
3600
3400
1800
1800
3000
3000
ENDCHAR
STARTCHAR z
ENCODING 122
SWIDTH 112 0
DWIDTH 8 0
BBX 8 15 0 -3
BITMAP
00
00
00
00
00
7e
06
0c
18
30
60
60
7e
00
00
ENDCHAR
STARTCHAR {
ENCODING 123
SWIDTH 84 0
DWIDTH 6 0
BBX 6 15 0 -3
BITMAP
00
00
38
60
60
30
10
60
10
30
60
60
60
38
00
ENDCHAR
STARTCHAR |
ENCODING 124
SWIDTH 56 0
DWIDTH 4 0
BBX 4 15 0 -3
BITMAP
00
00
00
60
60
60
60
60
60
60
60
60
60
60
00
ENDCHAR
STARTCHAR }
ENCODING 125
SWIDTH 84 0
DWIDTH 6 0
BBX 6 15 0 -3
BITMAP
00
00
70
18
18
30
20
18
20
30
18
18
18
70
00
ENDCHAR
STARTCHAR ~
ENCODING 126
SWIDTH 126 0
DWIDTH 9 0
BBX 9 15 0 -3
BITMAP
0000
0000
0000
0000
0000
0000
0000
3100
4900
4600
0000
0000
0000
0000
0000
ENDCHAR
ENDFONT
